<?xml version="1.0" encoding="utf-8"?>
<svg viewBox="-72.011 -33.032 536.608 550.317" xmlns="http://www.w3.org/2000/svg">
  <defs>
    <linearGradient gradientUnits="userSpaceOnUse" x1="198.194" y1="-30.391" x2="198.194" y2="510.019" id="gradient-0">
      <stop offset="0" style="stop-color: rgba(255, 255, 255, 1)"/>
      <stop offset="1" style="stop-color: rgba(204, 204, 204, 1)"/>
    </linearGradient>
  </defs>
  <ellipse style="stroke-width: 4px; paint-order: fill; stroke: rgb(18, 18, 18); fill: url(#gradient-0);" cx="198.194" cy="239.814" rx="246.42" ry="270.205"/>
  <path d="M 364.984 96.81 L 223.482 488.077 C 218.582 499.947 206.882 507.747 193.982 507.747 C 181.082 507.747 169.422 499.99 164.452 488.067 L 34.181 113.316 C 27.384 97.006 -18.425 104.032 -2.111 97.242 C 14.269 90.383 56.752 63.149 63.512 79.447 L 193.982 392.547 L 324.482 79.447 C 331.248 63.147 372.414 79.801 388.784 86.671 C 405.044 93.471 371.784 80.49 364.984 96.81 Z" style="fill-rule: nonzero; fill: rgb(238, 108, 77);"/>
  <path d="M 235.054 139.553 C 233.105 119.543 226.31 58.36 213.127 58.36 C 209.955 58.36 207.106 60.408 204.728 63.24 C 200.027 68.772 193.488 68.772 188.757 63.24 C 186.375 60.452 183.543 58.36 180.371 58.36 C 167.178 58.36 160.376 119.543 158.225 139.553 C 167.007 143.946 179.466 147.607 196.545 147.607 C 213.625 147.607 226.468 143.946 235.054 139.553 Z M 267.628 126.584 C 266.239 125.146 264.41 125.36 263.165 127.103 C 262.938 127.409 240.219 158.748 196.772 158.748 C 153.529 158.748 130.583 127.376 130.356 127.072 C 129.111 125.373 127.251 125.152 125.89 126.591 C 124.504 128.028 123.946 130.736 124.513 133.134 C 124.659 133.835 142.014 203.385 196.545 203.385 C 251.076 203.385 268.624 133.835 268.601 133.138 C 269.575 130.734 269.009 128.048 267.628 126.584 Z" style=""/>
</svg>